<?xml version="1.0" encoding="UTF-8"?>
<svg id="fullscree-button" xmlns="http://www.w3.org/2000/svg" version="1.1" viewBox="0 0 640 640">
  <!-- Generator: Adobe Illustrator 29.2.1, SVG Export Plug-In . SVG Version: 2.1.0 Build 116)  -->
  <path d="M236.1,640H45.2C20.2,640,0,619.7,0,594.8v-190.8C0,379,20.3,358.9,45.2,358.9s45.2,20.3,45.2,45.2v145.6h145.6c25,0,45.2,20.3,45.2,45.2s-20.3,45.2-45.2,45.2h.1ZM45.2,281.2C20.2,281.2,0,261,0,236.1V45.2C0,20.3,20.3,0,45.2,0h190.8C261,0,281.1,20.3,281.1,45.2s-20.3,45.2-45.2,45.2H90.5v145.6c0,25-20.3,45.2-45.2,45.2h-.1ZM594.8,281.2c-25,0-45.2-20.3-45.2-45.2V90.5h-145.6c-25,0-45.2-20.3-45.2-45.2S379,0,403.9,0h190.8C619.7,0,639.9,20.3,639.9,45.2v190.8c0,25-20.3,45.2-45.2,45.2h.1ZM594.8,640h-190.8c-25,0-45.2-20.3-45.2-45.2s20.3-45.2,45.2-45.2h145.6v-145.6c0-25,20.3-45.2,45.2-45.2s45.2,20.3,45.2,45.2v190.8c0,25-20.3,45.2-45.2,45.2Z"/>
</svg>