<?xml version="1.0" encoding="UTF-8"?><svg id="volume-xmark" xmlns="http://www.w3.org/2000/svg" viewBox="0 0 608 457.843"><path d="M48,324.892h48l134.1,119.2c6.4,5.7,14.6,8.8,23.1,8.8,19.2,0,34.8-15.6,34.8-34.8V39.692c0-19.2-15.6-34.8-34.8-34.8-8.5,0-16.7,3.1-23.1,8.8l-134.1,119.2h-48c-26.5,0-48,21.5-48,48v96c0,26.5,21.5,48,48,48ZM367,147.892c-9.4,9.4-9.4,24.6,0,33.9l47,47-47,47c-9.4,9.4-9.4,24.6,0,33.9,9.4,9.3,24.6,9.4,33.9,0l47-47,47,47c9.4,9.4,24.6,9.4,33.9,0,9.3-9.4,9.4-24.6,0-33.9l-47-47,47-47c9.4-9.4,9.4-24.6,0-33.9-9.4-9.3-24.6-9.4-33.9,0l-47,47-47-47c-9.4-9.4-24.6-9.4-33.9,0Z"/></svg>