<?xml version="1.0" encoding="UTF-8"?><svg id="volume-low" xmlns="http://www.w3.org/2000/svg" viewBox="0 0 608 457.843"><path d="M48,324.892h48l134.1,119.2c6.4,5.7,14.6,8.8,23.1,8.8,19.2,0,34.8-15.6,34.8-34.8V39.692c0-19.2-15.6-34.8-34.8-34.8-8.5,0-16.7,3.1-23.1,8.8l-134.1,119.2h-48c-26.5,0-48,21.5-48,48v96c0,26.5,21.5,48,48,48ZM380.6,154.392c-10.3-8.4-25.4-6.8-33.8,3.5-8.4,10.3-6.8,25.4,3.5,33.8,10.8,8.8,17.7,22.2,17.7,37.2s-6.9,28.4-17.7,37.3c-10.3,8.4-11.8,23.5-3.5,33.8,8.3,10.3,23.5,11.8,33.8,3.5,21.5-17.7,35.4-44.5,35.4-74.6s-13.9-56.9-35.5-74.5h.1Z"/></svg>